<svg xmlns="http://www.w3.org/2000/svg" fill="none" viewBox="-3 -2 17 18"><path fill="#fff" d="M4.224 3.744q0 .504.504.792.528.288 1.632.624 1.32.432 2.16.84.864.408 1.488 1.272.648.864.648 2.256 0 4.464-5.808 4.464-.96 0-2.352-.168A24 24 0 0 1 0 13.392q.048-.504.192-1.464.168-.984.312-1.464.84.12 2.52.288 1.704.168 2.568.168.504 0 .6-.072a.58.58 0 0 0 .216-.312q.096-.24.096-.408 0-.48-.456-.72-.456-.264-1.56-.624-1.32-.408-2.184-.84T.792 6.6.144 4.2q0-1.056.48-2.064.48-1.032.984-1.392Q1.992.48 3.192.24T5.448 0Q8.136 0 9.84.504q-.024.48-.168 1.32-.12.84-.264 1.536l-.552-.024q-3.12-.216-3.984-.216-.36 0-.408.024-.096.048-.168.216a1 1 0 0 0-.072.384"/></svg>